# xmcd
#
# Track frame offsets:
#	150
#	14303
#	34748
#	54670
#	76028
#
# Disc length: 1629 seconds
#
# Revision: 1
# Processed by: cddbd v1.5.1PL0 Copyright (c) Steve Scherf et al.
# Submitted via: audiograbber 1.83.01
#
DISCID=2f065b05
DTITLE=Mike van Acker - Man Down Under EP
DYEAR=2004
DGENRE=Comedy
TTITLE0=Man Down Under
TTITLE1=Mike van Acker Live
TTITLE2=Man Down Under Live
TTITLE3=Crap B Side
TTITLE4=Data Track
EXTD=
EXTT0=
EXTT1=
EXTT2=
EXTT3=
EXTT4=
PLAYORDER=
